<?xml version="1.0" encoding="UTF-8" standalone="no"?>
<!DOCTYPE svg PUBLIC "-//W3C//DTD SVG 1.1//EN" "http://www.w3.org/Graphics/SVG/1.1/DTD/svg11.dtd">
<svg width="100%" height="100%" viewBox="0 0 424 443" version="1.1" xmlns="http://www.w3.org/2000/svg" xmlns:xlink="http://www.w3.org/1999/xlink" xml:space="preserve" xmlns:serif="http://www.serif.com/" style="fill-rule:evenodd;clip-rule:evenodd;stroke-linejoin:round;stroke-miterlimit:2;">
    <g transform="matrix(1.35126,0,0,1.35126,-583.774,-478.79)">
        <g transform="matrix(4.16667,0,0,4.16667,626.75,656.497)">
            <path d="M0,-66.015L0,-46.146C0,-43.398 0.719,-41.087 2.277,-38.834L23.322,-8.405C26.819,-3.349 23.203,3.547 17.059,3.547L-35.397,3.547C-41.542,3.547 -45.158,-3.349 -41.661,-8.405L-20.616,-38.834C-19.058,-41.087 -18.339,-43.398 -18.339,-46.146L-18.339,-66.015L-21.368,-66.015C-22.343,-66.015 -23.141,-66.813 -23.141,-67.788C-23.141,-68.763 -22.343,-69.562 -21.368,-69.562L-14.793,-69.562L-14.793,-46.146C-14.793,-42.69 -15.736,-39.675 -17.707,-36.826L-38.752,-6.396C-40.633,-3.676 -38.708,0 -35.397,0L17.059,0C20.369,0 22.294,-3.676 20.414,-6.396L-0.632,-36.826C-2.603,-39.675 -3.546,-42.69 -3.546,-46.146L-3.546,-69.562L3.029,-69.562C4.004,-69.562 4.802,-68.763 4.802,-67.788C4.802,-66.813 4.004,-66.015 3.029,-66.015L0,-66.015Z" style="fill:rgb(105,135,44);"/>
        </g>
        <g transform="matrix(4.16667,0,0,4.16667,536.297,588.388)">
            <path d="M0,-12.536C-1.161,-9.595 -0.83,-5.342 0.234,-1.481C2.75,-1.797 5.188,-1.307 7.362,0C7.442,-0.108 7.525,-0.216 7.611,-0.324L3.072,-7.772L7.905,-0.68C8.687,-1.594 9.616,-2.413 10.566,-3.147C8.712,-5.005 7.802,-7.258 7.253,-9.767C4.843,-11.327 2.271,-12.423 0,-12.536" style="fill:rgb(130,163,42);"/>
        </g>
        <g transform="matrix(4.16667,0,0,4.16667,581.465,570.896)">
            <path d="M0,-21.842C-3.034,-17.596 -2.992,-8.9 -1.327,-4.009C-0.743,-2.294 0.14,-0.986 1.185,0C2.69,-1.012 4.385,-1.946 6.13,-2.7L1.827,-16.476L6.807,-2.984C8.688,-3.739 10.629,-4.281 12.471,-4.488C12.574,-5.728 12.426,-7.075 11.933,-8.524C10.268,-13.414 4.995,-20.329 0,-21.842" style="fill:rgb(190,208,1);"/>
        </g>
        <g transform="matrix(4.16667,0,0,4.16667,473.267,605.497)">
            <path d="M0,6.888C3.916,10.337 12.572,11.178 17.606,10.017C19.278,9.632 20.614,8.944 21.674,8.074C20.824,7.09 20.326,3.903 20.311,2.601L5.523,5.616L20.33,1.804C20.417,0.29 20.811,-1.204 21.547,-2.609C19.676,-3.724 17.315,-4.29 14.46,-3.632C9.426,-2.471 2.012,2.074 0,6.888" style="fill:rgb(190,208,1);"/>
        </g>
        <g transform="matrix(4.16667,0,0,4.16667,699.079,612.352)">
            <path d="M0,5.86C-1.624,1.596 -7.381,-2.593 -12.141,-4.461C-12.922,-2.342 -13.992,-0.252 -15.184,1.579L-5.48,4.411L-15.487,2.036C-16.912,4.136 -18.527,5.993 -20.585,7.185C-15.64,10.321 -4.328,9.432 0,5.86" style="fill:rgb(190,208,1);"/>
        </g>
        <g transform="matrix(4.16667,0,0,4.16667,646.194,640.708)">
            <path d="M0,-19.459C-5.153,-20.284 -12.921,-16.373 -16.558,-12.705C-20.195,-9.036 -19.791,-4.673 -18.491,-1.532L-3.991,-15.434L-17.766,-0.813C-14.615,0.459 -10.248,0.825 -6.611,-2.844C-2.974,-6.512 0.87,-14.313 0,-19.459" style="fill:rgb(130,163,42);"/>
        </g>
    </g>
</svg>
