solid OpenSCAD_Model
  facet normal 1 -0 0
    outer loop
      vertex 2.5 -4.05 8.5
      vertex 2.5 -2.5 3.5
      vertex 2.5 -1.55 8.5
    endloop
  endfacet
  facet normal 1 0 0
    outer loop
      vertex 2.5 -5.5 3.5
      vertex 2.5 -4.05 8.5
      vertex 2.5 -5.5 8.5
    endloop
  endfacet
  facet normal 1 0 0
    outer loop
      vertex 2.5 -4.05 8.5
      vertex 2.5 -5.5 3.5
      vertex 2.5 -2.5 3.5
    endloop
  endfacet
  facet normal 1 0 0
    outer loop
      vertex 2.5 -1.55 8.5
      vertex 2.5 2.5 20
      vertex 2.5 -1.55 15
    endloop
  endfacet
  facet normal 1 -0 0
    outer loop
      vertex 2.5 -5.5 20
      vertex 2.5 -1.55 15
      vertex 2.5 2.5 20
    endloop
  endfacet
  facet normal 1 0 0
    outer loop
      vertex 2.5 -1.55 15
      vertex 2.5 -5.5 20
      vertex 2.5 -4.05 15
    endloop
  endfacet
  facet normal 1 0 0
    outer loop
      vertex 2.5 -4.05 15
      vertex 2.5 -5.5 20
      vertex 2.5 -5.5 15
    endloop
  endfacet
  facet normal 1 0 0
    outer loop
      vertex 2.5 2.5 20
      vertex 2.5 -1.55 8.5
      vertex 2.5 2.5 3
    endloop
  endfacet
  facet normal 1 -0 0
    outer loop
      vertex 2.5 -2.5 3.5
      vertex 2.5 2.5 3
      vertex 2.5 -1.55 8.5
    endloop
  endfacet
  facet normal 1 0 0
    outer loop
      vertex 2.5 2.5 3
      vertex 2.5 -2.5 3.5
      vertex 2.5 -2.5 3
    endloop
  endfacet
  facet normal -1 0 0
    outer loop
      vertex 2.5 -2.5 -2
      vertex 2.5 2.5 0
      vertex 2.5 2.5 -2
    endloop
  endfacet
  facet normal -1 -0 0
    outer loop
      vertex 2.5 2.5 0
      vertex 2.5 -2.5 -2
      vertex 2.5 -2.5 0
    endloop
  endfacet
  facet normal 0 0 1
    outer loop
      vertex 2.5 2.5 20
      vertex 1.55 0 20
      vertex 2.5 -5.5 20
    endloop
  endfacet
  facet normal 0 0 1
    outer loop
      vertex 2.5 2.5 20
      vertex 1.47414 0.478976 20
      vertex 1.55 0 20
    endloop
  endfacet
  facet normal 0 0 1
    outer loop
      vertex 2.5 2.5 20
      vertex 1.25398 0.911067 20
      vertex 1.47414 0.478976 20
    endloop
  endfacet
  facet normal 0 0 1
    outer loop
      vertex 2.5 2.5 20
      vertex 0.911067 1.25398 20
      vertex 1.25398 0.911067 20
    endloop
  endfacet
  facet normal 0 0 1
    outer loop
      vertex 2.5 2.5 20
      vertex 0.478976 1.47414 20
      vertex 0.911067 1.25398 20
    endloop
  endfacet
  facet normal 0 0 1
    outer loop
      vertex 2.5 2.5 20
      vertex 0 1.55 20
      vertex 0.478976 1.47414 20
    endloop
  endfacet
  facet normal -0 0 1
    outer loop
      vertex -2.5 2.5 20
      vertex 0 1.55 20
      vertex 2.5 2.5 20
    endloop
  endfacet
  facet normal 0 0 1
    outer loop
      vertex -1.47414 0.478976 20
      vertex -2.5 2.5 20
      vertex -1.55 0 20
    endloop
  endfacet
  facet normal 0 0 1
    outer loop
      vertex -1.25398 0.911067 20
      vertex -2.5 2.5 20
      vertex -1.47414 0.478976 20
    endloop
  endfacet
  facet normal 0 0 1
    outer loop
      vertex -0.911067 1.25398 20
      vertex -2.5 2.5 20
      vertex -1.25398 0.911067 20
    endloop
  endfacet
  facet normal 0 0 1
    outer loop
      vertex -0.478976 1.47414 20
      vertex -2.5 2.5 20
      vertex -0.911067 1.25398 20
    endloop
  endfacet
  facet normal 0 0 1
    outer loop
      vertex 0 1.55 20
      vertex -2.5 2.5 20
      vertex -0.478976 1.47414 20
    endloop
  endfacet
  facet normal -0 0 1
    outer loop
      vertex 1.47414 -0.478976 20
      vertex 2.5 -5.5 20
      vertex 1.55 0 20
    endloop
  endfacet
  facet normal -0 0 1
    outer loop
      vertex 1.25398 -0.911067 20
      vertex 2.5 -5.5 20
      vertex 1.47414 -0.478976 20
    endloop
  endfacet
  facet normal -0 0 1
    outer loop
      vertex 0.911067 -1.25398 20
      vertex 2.5 -5.5 20
      vertex 1.25398 -0.911067 20
    endloop
  endfacet
  facet normal -0 0 1
    outer loop
      vertex 0.478976 -1.47414 20
      vertex 2.5 -5.5 20
      vertex 0.911067 -1.25398 20
    endloop
  endfacet
  facet normal -0 0 1
    outer loop
      vertex 0 -1.55 20
      vertex 2.5 -5.5 20
      vertex 0.478976 -1.47414 20
    endloop
  endfacet
  facet normal 0 0 1
    outer loop
      vertex -2.5 -5.5 20
      vertex 0 -1.55 20
      vertex -0.478976 -1.47414 20
    endloop
  endfacet
  facet normal 0 0 1
    outer loop
      vertex -2.5 -5.5 20
      vertex -0.478976 -1.47414 20
      vertex -0.911067 -1.25398 20
    endloop
  endfacet
  facet normal 0 0 1
    outer loop
      vertex -2.5 -5.5 20
      vertex -0.911067 -1.25398 20
      vertex -1.25398 -0.911067 20
    endloop
  endfacet
  facet normal 0 0 1
    outer loop
      vertex -2.5 2.5 20
      vertex -1.47414 -0.478976 20
      vertex -1.55 0 20
    endloop
  endfacet
  facet normal 0 0 1
    outer loop
      vertex 0 -1.55 20
      vertex -2.5 -5.5 20
      vertex 2.5 -5.5 20
    endloop
  endfacet
  facet normal 0 0 1
    outer loop
      vertex -1.47414 -0.478976 20
      vertex -2.5 -5.5 20
      vertex -1.25398 -0.911067 20
    endloop
  endfacet
  facet normal 0 0 1
    outer loop
      vertex -2.5 -5.5 20
      vertex -1.47414 -0.478976 20
      vertex -2.5 2.5 20
    endloop
  endfacet
  facet normal 0 0 -1
    outer loop
      vertex 2.5 -2.5 0
      vertex 1.55 0 0
      vertex 2.5 2.5 0
    endloop
  endfacet
  facet normal 0 0 -1
    outer loop
      vertex 2.5 -2.5 0
      vertex 1.47414 -0.478976 0
      vertex 1.55 0 0
    endloop
  endfacet
  facet normal 0 0 -1
    outer loop
      vertex 2.5 -2.5 0
      vertex 1.25398 -0.911067 0
      vertex 1.47414 -0.478976 0
    endloop
  endfacet
  facet normal 0 0 -1
    outer loop
      vertex 2.5 -2.5 0
      vertex 0.911067 -1.25398 0
      vertex 1.25398 -0.911067 0
    endloop
  endfacet
  facet normal 0 0 -1
    outer loop
      vertex 2.5 -2.5 0
      vertex 0.478976 -1.47414 0
      vertex 0.911067 -1.25398 0
    endloop
  endfacet
  facet normal 0 0 -1
    outer loop
      vertex 2.5 -2.5 0
      vertex 0 -1.55 0
      vertex 0.478976 -1.47414 0
    endloop
  endfacet
  facet normal 0 0 -1
    outer loop
      vertex -2.5 -2.5 0
      vertex 0 -1.55 0
      vertex 2.5 -2.5 0
    endloop
  endfacet
  facet normal -0 0 -1
    outer loop
      vertex -1.47414 -0.478976 0
      vertex -2.5 -2.5 0
      vertex -1.55 0 0
    endloop
  endfacet
  facet normal -0 0 -1
    outer loop
      vertex -1.25398 -0.911067 0
      vertex -2.5 -2.5 0
      vertex -1.47414 -0.478976 0
    endloop
  endfacet
  facet normal -0 0 -1
    outer loop
      vertex -0.911067 -1.25398 0
      vertex -2.5 -2.5 0
      vertex -1.25398 -0.911067 0
    endloop
  endfacet
  facet normal -0 0 -1
    outer loop
      vertex -0.478976 -1.47414 0
      vertex -2.5 -2.5 0
      vertex -0.911067 -1.25398 0
    endloop
  endfacet
  facet normal -0 0 -1
    outer loop
      vertex 0 -1.55 0
      vertex -2.5 -2.5 0
      vertex -0.478976 -1.47414 0
    endloop
  endfacet
  facet normal 0 0 -1
    outer loop
      vertex 1.47414 0.478976 0
      vertex 2.5 2.5 0
      vertex 1.55 0 0
    endloop
  endfacet
  facet normal 0 0 -1
    outer loop
      vertex 1.25398 0.911067 0
      vertex 2.5 2.5 0
      vertex 1.47414 0.478976 0
    endloop
  endfacet
  facet normal 0 0 -1
    outer loop
      vertex 0.911067 1.25398 0
      vertex 2.5 2.5 0
      vertex 1.25398 0.911067 0
    endloop
  endfacet
  facet normal 0 0 -1
    outer loop
      vertex 0.478976 1.47414 0
      vertex 2.5 2.5 0
      vertex 0.911067 1.25398 0
    endloop
  endfacet
  facet normal 0 0 -1
    outer loop
      vertex 0 1.55 0
      vertex 2.5 2.5 0
      vertex 0.478976 1.47414 0
    endloop
  endfacet
  facet normal 0 0 -1
    outer loop
      vertex -2.5 2.5 0
      vertex 0 1.55 0
      vertex -0.478976 1.47414 0
    endloop
  endfacet
  facet normal 0 0 -1
    outer loop
      vertex -2.5 2.5 0
      vertex -1.55 0 0
      vertex -2.5 -2.5 0
    endloop
  endfacet
  facet normal 0 0 -1
    outer loop
      vertex 0 1.55 0
      vertex -2.5 2.5 0
      vertex 2.5 2.5 0
    endloop
  endfacet
  facet normal 0 0 -1
    outer loop
      vertex -0.911067 1.25398 0
      vertex -2.5 2.5 0
      vertex -0.478976 1.47414 0
    endloop
  endfacet
  facet normal 0 0 -1
    outer loop
      vertex -1.25398 0.911067 0
      vertex -2.5 2.5 0
      vertex -0.911067 1.25398 0
    endloop
  endfacet
  facet normal 0 0 -1
    outer loop
      vertex -1.47414 0.478976 0
      vertex -2.5 2.5 0
      vertex -1.25398 0.911067 0
    endloop
  endfacet
  facet normal 0 0 -1
    outer loop
      vertex -1.55 0 0
      vertex -2.5 2.5 0
      vertex -1.47414 0.478976 0
    endloop
  endfacet
  facet normal -1 0 0
    outer loop
      vertex -2.5 2.5 0
      vertex -2.5 -1.55 8.5
      vertex -2.5 2.5 20
    endloop
  endfacet
  facet normal -1 0 0
    outer loop
      vertex -2.5 -2.5 3.5
      vertex -2.5 2.5 0
      vertex -2.5 -2.5 0
    endloop
  endfacet
  facet normal -1 0 0
    outer loop
      vertex -2.5 2.5 0
      vertex -2.5 -2.5 3.5
      vertex -2.5 -1.55 8.5
    endloop
  endfacet
  facet normal -1 0 0
    outer loop
      vertex -2.5 -2.5 3.5
      vertex -2.5 -4.05 8.5
      vertex -2.5 -1.55 8.5
    endloop
  endfacet
  facet normal -1 0 0
    outer loop
      vertex -2.5 -5.5 3.5
      vertex -2.5 -4.05 8.5
      vertex -2.5 -2.5 3.5
    endloop
  endfacet
  facet normal -1 -0 0
    outer loop
      vertex -2.5 -4.05 8.5
      vertex -2.5 -5.5 3.5
      vertex -2.5 -5.5 8.5
    endloop
  endfacet
  facet normal -1 0 0
    outer loop
      vertex -2.5 -1.55 15
      vertex -2.5 2.5 20
      vertex -2.5 -1.55 8.5
    endloop
  endfacet
  facet normal -1 0 0
    outer loop
      vertex -2.5 -5.5 20
      vertex -2.5 -1.55 15
      vertex -2.5 -4.05 15
    endloop
  endfacet
  facet normal -1 0 0
    outer loop
      vertex -2.5 -5.5 20
      vertex -2.5 -4.05 15
      vertex -2.5 -5.5 15
    endloop
  endfacet
  facet normal -1 0 0
    outer loop
      vertex -2.5 -1.55 15
      vertex -2.5 -5.5 20
      vertex -2.5 2.5 20
    endloop
  endfacet
  facet normal 0 1 0
    outer loop
      vertex 7.5 2.5 3
      vertex 2.5 2.5 0
      vertex 2.5 2.5 3
    endloop
  endfacet
  facet normal 0 1 -0
    outer loop
      vertex 7.5 2.5 -2
      vertex 2.5 2.5 0
      vertex 7.5 2.5 3
    endloop
  endfacet
  facet normal 0 1 0
    outer loop
      vertex 2.5 2.5 0
      vertex 7.5 2.5 -2
      vertex 2.5 2.5 -2
    endloop
  endfacet
  facet normal 0 1 -0
    outer loop
      vertex 2.5 2.5 3
      vertex -2.5 2.5 20
      vertex 2.5 2.5 20
    endloop
  endfacet
  facet normal 0 1 0
    outer loop
      vertex -2.5 2.5 0
      vertex 2.5 2.5 3
      vertex 2.5 2.5 0
    endloop
  endfacet
  facet normal 0 1 0
    outer loop
      vertex 2.5 2.5 3
      vertex -2.5 2.5 0
      vertex -2.5 2.5 20
    endloop
  endfacet
  facet normal 0 -1 0
    outer loop
      vertex -2.5 -2.5 3.5
      vertex 2.5 -2.5 3
      vertex 2.5 -2.5 3.5
    endloop
  endfacet
  facet normal 0 -1 0
    outer loop
      vertex -2.5 -2.5 0
      vertex 2.5 -2.5 3
      vertex -2.5 -2.5 3.5
    endloop
  endfacet
  facet normal 0 -1 0
    outer loop
      vertex 2.5 -2.5 0
      vertex 2.5 -2.5 3
      vertex -2.5 -2.5 0
    endloop
  endfacet
  facet normal 0 -1 0
    outer loop
      vertex 2.5 -2.5 3
      vertex 2.5 -2.5 0
      vertex 7.5 -2.5 3
    endloop
  endfacet
  facet normal 0 -1 0
    outer loop
      vertex 7.5 -2.5 -2
      vertex 2.5 -2.5 0
      vertex 2.5 -2.5 -2
    endloop
  endfacet
  facet normal 0 -1 0
    outer loop
      vertex 2.5 -2.5 0
      vertex 7.5 -2.5 -2
      vertex 7.5 -2.5 3
    endloop
  endfacet
  facet normal 1 -0 0
    outer loop
      vertex 7.5 -2.5 3
      vertex 7.5 2.5 -2
      vertex 7.5 2.5 3
    endloop
  endfacet
  facet normal 1 0 0
    outer loop
      vertex 7.5 2.5 -2
      vertex 7.5 -2.5 3
      vertex 7.5 -2.5 -2
    endloop
  endfacet
  facet normal -0 0 1
    outer loop
      vertex 2.5 2.5 3
      vertex 7.5 -2.5 3
      vertex 7.5 2.5 3
    endloop
  endfacet
  facet normal 0 0 1
    outer loop
      vertex 7.5 -2.5 3
      vertex 2.5 2.5 3
      vertex 2.5 -2.5 3
    endloop
  endfacet
  facet normal 0 0 -1
    outer loop
      vertex 2.5 -2.5 -2
      vertex 7.5 2.5 -2
      vertex 7.5 -2.5 -2
    endloop
  endfacet
  facet normal -0 0 -1
    outer loop
      vertex 7.5 2.5 -2
      vertex 2.5 -2.5 -2
      vertex 2.5 2.5 -2
    endloop
  endfacet
  facet normal -0 0 1
    outer loop
      vertex -2.5 -4.05 8.5
      vertex 2.5 -5.5 8.5
      vertex 2.5 -4.05 8.5
    endloop
  endfacet
  facet normal 0 0 1
    outer loop
      vertex 2.5 -5.5 8.5
      vertex -2.5 -4.05 8.5
      vertex -2.5 -5.5 8.5
    endloop
  endfacet
  facet normal -0 0 1
    outer loop
      vertex 0 -1.55 8.5
      vertex 2.5 -4.05 8.5
      vertex 2.5 -1.55 8.5
    endloop
  endfacet
  facet normal 0 0 1
    outer loop
      vertex -2.5 -4.05 8.5
      vertex 0 -1.55 8.5
      vertex -2.5 -1.55 8.5
    endloop
  endfacet
  facet normal 0 0 1
    outer loop
      vertex 0 -1.55 8.5
      vertex -2.5 -4.05 8.5
      vertex 2.5 -4.05 8.5
    endloop
  endfacet
  facet normal 0 0 -1
    outer loop
      vertex -2.5 -5.5 3.5
      vertex 2.5 -2.5 3.5
      vertex 2.5 -5.5 3.5
    endloop
  endfacet
  facet normal -0 0 -1
    outer loop
      vertex 2.5 -2.5 3.5
      vertex -2.5 -5.5 3.5
      vertex -2.5 -2.5 3.5
    endloop
  endfacet
  facet normal 0 -1 0
    outer loop
      vertex -2.5 -5.5 3.5
      vertex 2.5 -5.5 8.5
      vertex -2.5 -5.5 8.5
    endloop
  endfacet
  facet normal 0 -1 -0
    outer loop
      vertex 2.5 -5.5 8.5
      vertex -2.5 -5.5 3.5
      vertex 2.5 -5.5 3.5
    endloop
  endfacet
  facet normal 0 0 -1
    outer loop
      vertex -2.5 -5.5 15
      vertex 2.5 -4.05 15
      vertex 2.5 -5.5 15
    endloop
  endfacet
  facet normal -0 0 -1
    outer loop
      vertex 2.5 -4.05 15
      vertex -2.5 -5.5 15
      vertex -2.5 -4.05 15
    endloop
  endfacet
  facet normal 0 0 -1
    outer loop
      vertex 2.5 -4.05 15
      vertex 0 -1.55 15
      vertex 2.5 -1.55 15
    endloop
  endfacet
  facet normal 0 0 -1
    outer loop
      vertex -2.5 -4.05 15
      vertex 0 -1.55 15
      vertex 2.5 -4.05 15
    endloop
  endfacet
  facet normal -0 0 -1
    outer loop
      vertex 0 -1.55 15
      vertex -2.5 -4.05 15
      vertex -2.5 -1.55 15
    endloop
  endfacet
  facet normal 0 -1 0
    outer loop
      vertex -2.5 -5.5 15
      vertex 2.5 -5.5 20
      vertex -2.5 -5.5 20
    endloop
  endfacet
  facet normal 0 -1 -0
    outer loop
      vertex 2.5 -5.5 20
      vertex -2.5 -5.5 15
      vertex 2.5 -5.5 15
    endloop
  endfacet
  facet normal -0.891008 -0.453988 0
    outer loop
      vertex 1.47414 0.478976 0
      vertex 1.25398 0.911067 20
      vertex 1.25398 0.911067 0
    endloop
  endfacet
  facet normal -0.891008 -0.453988 0
    outer loop
      vertex 1.25398 0.911067 20
      vertex 1.47414 0.478976 0
      vertex 1.47414 0.478976 20
    endloop
  endfacet
  facet normal -0.987689 -0.15643 0
    outer loop
      vertex 1.55 0 0
      vertex 1.47414 0.478976 20
      vertex 1.47414 0.478976 0
    endloop
  endfacet
  facet normal -0.987689 -0.15643 0
    outer loop
      vertex 1.47414 0.478976 20
      vertex 1.55 0 0
      vertex 1.55 0 20
    endloop
  endfacet
  facet normal 0.891008 -0.453988 0
    outer loop
      vertex -1.47414 0.478976 20
      vertex -1.25398 0.911067 0
      vertex -1.25398 0.911067 20
    endloop
  endfacet
  facet normal 0.891008 -0.453988 0
    outer loop
      vertex -1.25398 0.911067 0
      vertex -1.47414 0.478976 20
      vertex -1.47414 0.478976 0
    endloop
  endfacet
  facet normal -0.453988 0.891008 0
    outer loop
      vertex 0.911067 -1.25398 0
      vertex 0.478976 -1.47414 20
      vertex 0.911067 -1.25398 20
    endloop
  endfacet
  facet normal -0.453988 0.891008 0
    outer loop
      vertex 0.478976 -1.47414 20
      vertex 0.911067 -1.25398 0
      vertex 0.478976 -1.47414 0
    endloop
  endfacet
  facet normal 0.707107 -0.707107 0
    outer loop
      vertex -1.25398 0.911067 20
      vertex -0.911067 1.25398 0
      vertex -0.911067 1.25398 20
    endloop
  endfacet
  facet normal 0.707107 -0.707107 0
    outer loop
      vertex -0.911067 1.25398 0
      vertex -1.25398 0.911067 20
      vertex -1.25398 0.911067 0
    endloop
  endfacet
  facet normal 0.707107 0.707107 0
    outer loop
      vertex -0.911067 -1.25398 20
      vertex -1.25398 -0.911067 0
      vertex -1.25398 -0.911067 20
    endloop
  endfacet
  facet normal 0.707107 0.707107 0
    outer loop
      vertex -1.25398 -0.911067 0
      vertex -0.911067 -1.25398 20
      vertex -0.911067 -1.25398 0
    endloop
  endfacet
  facet normal -0.453988 -0.891008 0
    outer loop
      vertex 0.478976 1.47414 0
      vertex 0.911067 1.25398 20
      vertex 0.478976 1.47414 20
    endloop
  endfacet
  facet normal -0.453988 -0.891008 -0
    outer loop
      vertex 0.911067 1.25398 20
      vertex 0.478976 1.47414 0
      vertex 0.911067 1.25398 0
    endloop
  endfacet
  facet normal 0.987689 0.15643 0
    outer loop
      vertex -1.47414 -0.478976 20
      vertex -1.55 0 0
      vertex -1.55 0 20
    endloop
  endfacet
  facet normal 0.987689 0.15643 0
    outer loop
      vertex -1.55 0 0
      vertex -1.47414 -0.478976 20
      vertex -1.47414 -0.478976 0
    endloop
  endfacet
  facet normal -0.707107 0.707107 0
    outer loop
      vertex 0.911067 -1.25398 0
      vertex 1.25398 -0.911067 20
      vertex 1.25398 -0.911067 0
    endloop
  endfacet
  facet normal -0.707107 0.707107 0
    outer loop
      vertex 1.25398 -0.911067 20
      vertex 0.911067 -1.25398 0
      vertex 0.911067 -1.25398 20
    endloop
  endfacet
  facet normal -0.987689 0.15643 0
    outer loop
      vertex 1.47414 -0.478976 0
      vertex 1.55 0 20
      vertex 1.55 0 0
    endloop
  endfacet
  facet normal -0.987689 0.15643 0
    outer loop
      vertex 1.55 0 20
      vertex 1.47414 -0.478976 0
      vertex 1.47414 -0.478976 20
    endloop
  endfacet
  facet normal -0.15643 0.987689 0
    outer loop
      vertex 0.478976 -1.47414 20
      vertex 0 -1.55 15
      vertex 0 -1.55 20
    endloop
  endfacet
  facet normal -0.15643 0.987689 0
    outer loop
      vertex 0.478976 -1.47414 20
      vertex 0 -1.55 8.5
      vertex 0 -1.55 15
    endloop
  endfacet
  facet normal -0.15643 0.987689 0
    outer loop
      vertex 0.478976 -1.47414 0
      vertex 0 -1.55 8.5
      vertex 0.478976 -1.47414 20
    endloop
  endfacet
  facet normal -0.15643 0.987689 0
    outer loop
      vertex 0 -1.55 8.5
      vertex 0.478976 -1.47414 0
      vertex 0 -1.55 0
    endloop
  endfacet
  facet normal 0.15643 -0.987689 0
    outer loop
      vertex -0.478976 1.47414 0
      vertex 0 1.55 20
      vertex -0.478976 1.47414 20
    endloop
  endfacet
  facet normal 0.15643 -0.987689 0
    outer loop
      vertex 0 1.55 20
      vertex -0.478976 1.47414 0
      vertex 0 1.55 0
    endloop
  endfacet
  facet normal 0.987689 -0.15643 0
    outer loop
      vertex -1.55 0 20
      vertex -1.47414 0.478976 0
      vertex -1.47414 0.478976 20
    endloop
  endfacet
  facet normal 0.987689 -0.15643 0
    outer loop
      vertex -1.47414 0.478976 0
      vertex -1.55 0 20
      vertex -1.55 0 0
    endloop
  endfacet
  facet normal 0.453988 -0.891008 0
    outer loop
      vertex -0.911067 1.25398 0
      vertex -0.478976 1.47414 20
      vertex -0.911067 1.25398 20
    endloop
  endfacet
  facet normal 0.453988 -0.891008 0
    outer loop
      vertex -0.478976 1.47414 20
      vertex -0.911067 1.25398 0
      vertex -0.478976 1.47414 0
    endloop
  endfacet
  facet normal 0.15643 0.987689 -0
    outer loop
      vertex 0 -1.55 15
      vertex -0.478976 -1.47414 20
      vertex 0 -1.55 20
    endloop
  endfacet
  facet normal 0.15643 0.987689 -0
    outer loop
      vertex 0 -1.55 8.5
      vertex -0.478976 -1.47414 20
      vertex 0 -1.55 15
    endloop
  endfacet
  facet normal 0.15643 0.987689 0
    outer loop
      vertex -0.478976 -1.47414 0
      vertex 0 -1.55 8.5
      vertex 0 -1.55 0
    endloop
  endfacet
  facet normal 0.15643 0.987689 0
    outer loop
      vertex 0 -1.55 8.5
      vertex -0.478976 -1.47414 0
      vertex -0.478976 -1.47414 20
    endloop
  endfacet
  facet normal -0.15643 -0.987689 0
    outer loop
      vertex 0 1.55 0
      vertex 0.478976 1.47414 20
      vertex 0 1.55 20
    endloop
  endfacet
  facet normal -0.15643 -0.987689 -0
    outer loop
      vertex 0.478976 1.47414 20
      vertex 0 1.55 0
      vertex 0.478976 1.47414 0
    endloop
  endfacet
  facet normal -0.891008 0.453988 0
    outer loop
      vertex 1.25398 -0.911067 0
      vertex 1.47414 -0.478976 20
      vertex 1.47414 -0.478976 0
    endloop
  endfacet
  facet normal -0.891008 0.453988 0
    outer loop
      vertex 1.47414 -0.478976 20
      vertex 1.25398 -0.911067 0
      vertex 1.25398 -0.911067 20
    endloop
  endfacet
  facet normal 0.453988 0.891008 -0
    outer loop
      vertex -0.478976 -1.47414 0
      vertex -0.911067 -1.25398 20
      vertex -0.478976 -1.47414 20
    endloop
  endfacet
  facet normal 0.453988 0.891008 0
    outer loop
      vertex -0.911067 -1.25398 20
      vertex -0.478976 -1.47414 0
      vertex -0.911067 -1.25398 0
    endloop
  endfacet
  facet normal 0.891008 0.453988 0
    outer loop
      vertex -1.25398 -0.911067 20
      vertex -1.47414 -0.478976 0
      vertex -1.47414 -0.478976 20
    endloop
  endfacet
  facet normal 0.891008 0.453988 0
    outer loop
      vertex -1.47414 -0.478976 0
      vertex -1.25398 -0.911067 20
      vertex -1.25398 -0.911067 0
    endloop
  endfacet
  facet normal -0.707107 -0.707107 0
    outer loop
      vertex 1.25398 0.911067 0
      vertex 0.911067 1.25398 20
      vertex 0.911067 1.25398 0
    endloop
  endfacet
  facet normal -0.707107 -0.707107 0
    outer loop
      vertex 0.911067 1.25398 20
      vertex 1.25398 0.911067 0
      vertex 1.25398 0.911067 20
    endloop
  endfacet
  facet normal 0 -1 0
    outer loop
      vertex -2.5 -1.55 8.5
      vertex 0 -1.55 15
      vertex -2.5 -1.55 15
    endloop
  endfacet
  facet normal 0 -1 -0
    outer loop
      vertex 0 -1.55 15
      vertex -2.5 -1.55 8.5
      vertex 0 -1.55 8.5
    endloop
  endfacet
  facet normal 0 -1 0
    outer loop
      vertex 0 -1.55 8.5
      vertex 2.5 -1.55 15
      vertex 0 -1.55 15
    endloop
  endfacet
  facet normal 0 -1 -0
    outer loop
      vertex 2.5 -1.55 15
      vertex 0 -1.55 8.5
      vertex 2.5 -1.55 8.5
    endloop
  endfacet
endsolid OpenSCAD_Model
